ply
format ascii 1.0
comment Created by Blender 2.74 (sub 0) - www.blender.org, source file: ''
element vertex 507
property float x
property float y
property float z
property float nx
property float ny
property float nz
element face 968
property list uchar uint vertex_indices
end_header
0.178719 -0.288929 0.092338 0.969298 -0.245552 -0.011811
0.166804 -0.291907 0.062552 0.728996 -0.193426 -0.656575
0.190633 -0.262121 0.035744 0.607624 -0.608478 -0.510392
-0.190633 -0.262121 0.035744 -0.607624 -0.608478 -0.510392
-0.166804 -0.291907 0.062552 -0.728996 -0.193426 -0.656575
-0.178719 -0.288929 0.092338 -0.969298 -0.245552 -0.011811
0.214463 -0.256164 0.092338 0.800104 -0.599841 -0.002838
0.208505 -0.220420 0.020851 0.680166 -0.488815 -0.546251
-0.208505 -0.220420 0.020851 -0.680166 -0.488815 -0.546251
-0.214463 -0.256164 0.092338 -0.800104 -0.599841 -0.002838
0.134039 -0.274035 0.011915 0.099490 -0.652211 -0.751457
0.134039 -0.235313 -0.008936 0.119327 -0.476272 -0.871151
-0.134039 -0.235313 -0.008936 -0.119327 -0.476272 -0.871151
-0.134039 -0.274035 0.011915 -0.099490 -0.652211 -0.751457
0.134039 -0.297865 0.050637 0.031404 -0.252907 -0.966948
-0.134039 -0.297865 0.050637 -0.031404 -0.252907 -0.966948
0.104253 -0.303822 0.062552 -0.650563 -0.320963 -0.688253
0.077445 -0.282971 0.035744 -0.456282 -0.710135 -0.536149
-0.077445 -0.282971 0.035744 0.456282 -0.710135 -0.536149
-0.104253 -0.303822 0.062552 0.650563 -0.320963 -0.688253
0.059573 -0.247228 0.020851 -0.553850 -0.540635 -0.633198
-0.059573 -0.247228 0.020851 0.553850 -0.540635 -0.633198
0.053616 -0.282971 0.092338 -0.689871 -0.723899 -0.004028
0.029786 -0.250206 0.092338 -0.809717 -0.586749 -0.006989
-0.053616 -0.282971 0.092338 0.689871 -0.723899 -0.004028
0.092338 -0.303822 0.092338 -0.952055 -0.305704 -0.010163
-0.092338 -0.303822 0.092338 0.952055 -0.305704 -0.010163
0.104253 -0.303822 0.125103 -0.664357 -0.305582 0.682058
0.077445 -0.282971 0.148932 -0.455947 -0.720664 0.522202
-0.077445 -0.282971 0.148932 0.455947 -0.720664 0.522202
-0.104253 -0.303822 0.125103 0.664357 -0.305582 0.682058
0.059573 -0.247228 0.166804 -0.530595 -0.571703 0.625751
-0.029786 -0.250206 0.092338 0.809717 -0.586749 -0.006989
0.134039 -0.274035 0.172761 0.103061 -0.664388 0.740196
0.134039 -0.235313 0.196591 0.125736 -0.525254 0.841578
-0.134039 -0.274035 0.172761 -0.103061 -0.664388 0.740196
-0.059573 -0.247228 0.166804 0.530595 -0.571703 0.625751
0.134039 -0.297865 0.137018 0.025727 -0.231147 0.972564
-0.134039 -0.297865 0.137018 -0.025727 -0.231147 0.972564
0.166804 -0.291907 0.125103 0.736381 -0.180273 0.652089
0.190633 -0.262121 0.148932 0.610218 -0.618061 0.495590
-0.166804 -0.291907 0.125103 -0.736381 -0.180273 0.652089
0.208505 -0.220420 0.166804 0.668203 -0.514786 0.537095
-0.190633 -0.262121 0.148932 -0.610218 -0.618061 0.495590
-0.134039 -0.235313 0.196591 -0.125736 -0.525254 0.841578
0.238292 -0.214463 0.092338 0.868221 -0.496109 -0.004730
-0.208505 -0.220420 0.166804 -0.668203 -0.514786 0.537095
0.169783 -0.297865 0.128082 0.721610 -0.222388 0.655568
0.181697 -0.294886 0.092338 0.964446 -0.263863 -0.012665
-0.181697 -0.294886 0.092338 -0.964446 -0.263863 -0.012665
0.134039 -0.306801 0.142975 0.043123 -0.341441 0.938902
-0.169783 -0.297865 0.128082 -0.721610 -0.222388 0.655568
0.101274 -0.312758 0.128082 -0.623676 -0.464675 0.628529
-0.134039 -0.306801 0.142975 -0.043123 -0.341441 0.938902
0.086381 -0.312758 0.092338 -0.926969 -0.374859 -0.012940
-0.101274 -0.312758 0.128082 0.623676 -0.464675 0.628529
0.101274 -0.312758 0.059573 -0.615864 -0.464095 -0.636616
-0.101274 -0.312758 0.059573 0.615864 -0.464095 -0.636616
0.134039 -0.306801 0.044680 0.042543 -0.337474 -0.940336
-0.134039 -0.306801 0.044680 -0.042543 -0.337474 -0.940336
0.169783 -0.297865 0.059573 0.715171 -0.222694 -0.662465
-0.169783 -0.297865 0.059573 -0.715171 -0.222694 -0.662465
0.134039 -0.315737 0.092338 0.183599 -0.982971 -0.005310
-0.134039 -0.315737 0.092338 -0.183599 -0.982971 -0.005310
-0.086381 -0.312758 0.092338 0.926969 -0.374859 -0.012940
0.062552 -0.241270 -0.354459 0.155370 -0.632282 -0.758965
0.000000 -0.244249 -0.360416 0.000000 -0.631550 -0.775323
0.000000 -0.220420 -0.375309 0.000000 -0.252266 -0.967650
-0.062552 -0.241270 -0.354459 -0.155370 -0.632282 -0.758965
-0.068509 -0.211484 -0.369352 -0.159551 -0.152898 -0.975249
0.089359 -0.241270 -0.348502 0.350230 -0.684683 -0.639149
0.068509 -0.211484 -0.369352 0.159551 -0.152898 -0.975249
-0.089359 -0.241270 -0.348502 -0.350230 -0.684683 -0.639149
-0.125103 -0.199569 -0.360416 -0.526658 -0.161107 -0.834651
0.139996 -0.202548 -0.339566 0.945708 -0.197699 -0.257851
0.101274 -0.253185 -0.312758 0.555650 -0.799982 -0.226356
-0.101274 -0.253185 -0.312758 -0.555650 -0.799982 -0.226356
-0.139996 -0.202548 -0.339566 -0.945708 -0.197699 -0.257851
0.134039 -0.217441 -0.265100 0.972808 -0.208716 0.100314
0.095317 -0.262121 -0.268078 0.565172 -0.824396 -0.029725
-0.095317 -0.262121 -0.268078 -0.565172 -0.824396 -0.029725
-0.134039 -0.217441 -0.265100 -0.972808 -0.208716 0.100314
0.119146 -0.217441 -0.166804 0.955718 -0.156468 0.249184
0.080423 -0.271057 -0.169783 0.593677 -0.797388 0.108158
-0.080423 -0.271057 -0.169783 -0.593677 -0.797388 0.108158
-0.119146 -0.217441 -0.166804 -0.955718 -0.156468 0.249184
0.077445 -0.214463 -0.071488 0.891537 -0.309458 -0.330668
0.166804 -0.202548 -0.053616 0.348827 0.008148 -0.937132
0.151911 -0.256164 -0.017872 0.384136 -0.728538 -0.567125
-0.151911 -0.256164 -0.017872 -0.384136 -0.728538 -0.567125
-0.166804 -0.202548 -0.053616 -0.348827 0.008148 -0.937132
-0.077445 -0.214463 -0.071488 -0.891537 -0.309458 -0.330668
0.241270 -0.205527 -0.014893 0.587481 -0.196966 -0.784875
0.235313 -0.238292 0.020851 0.499130 -0.780663 -0.376049
-0.241270 -0.205527 -0.014893 -0.587481 -0.196966 -0.784875
0.315737 -0.169783 0.056594 0.906980 0.128941 -0.400922
0.277014 -0.229356 0.077445 0.566546 -0.759819 -0.318796
-0.277014 -0.229356 0.077445 -0.566546 -0.759819 -0.318796
-0.315737 -0.169783 0.056594 -0.906980 0.128941 -0.400922
0.327651 -0.226377 0.163826 0.845119 -0.298502 0.443403
0.282971 -0.250206 0.142975 0.460707 -0.875637 -0.144810
-0.327651 -0.226377 0.163826 -0.845119 -0.298502 0.443403
0.271057 -0.238292 0.184676 0.517045 -0.212531 0.829127
0.262121 -0.277014 0.157868 0.480117 -0.857814 -0.183264
-0.271057 -0.238292 0.184676 -0.517045 -0.212531 0.829127
-0.282971 -0.250206 0.142975 -0.460707 -0.875637 -0.144810
0.187655 -0.262121 0.229356 0.597552 -0.164586 0.784722
0.166804 -0.303822 0.208505 0.308451 -0.951201 0.003845
-0.187655 -0.262121 0.229356 -0.597552 -0.164586 0.784722
-0.262121 -0.277014 0.157868 -0.480117 -0.857814 -0.183264
0.122124 -0.279993 0.288929 0.231269 -0.175054 0.956999
0.119146 -0.318715 0.244249 0.266579 -0.939146 0.216590
-0.119146 -0.318715 0.244249 -0.266579 -0.939146 0.216590
-0.122124 -0.279993 0.288929 -0.231269 -0.175054 0.956999
0.059573 -0.288929 0.274035 -0.605060 -0.209754 0.768029
0.077445 -0.324672 0.235313 -0.157384 -0.973449 0.166021
-0.059573 -0.288929 0.274035 0.605060 -0.209754 0.768029
0.023829 -0.285950 0.187655 -0.824183 -0.147313 0.546770
0.038722 -0.321694 0.163826 -0.061098 -0.997803 -0.025239
-0.023829 -0.285950 0.187655 0.824183 -0.147313 0.546770
-0.077445 -0.324672 0.235313 0.157384 -0.973449 0.166021
0.000000 -0.282971 0.163826 0.000000 -0.267281 0.963591
0.000000 -0.312758 0.134039 0.000000 -0.996551 -0.082736
-0.038722 -0.321694 0.163826 0.061098 -0.997803 -0.025239
0.095317 -0.288929 0.178719 0.258156 -0.957762 -0.126499
-0.095317 -0.288929 0.178719 -0.258156 -0.957762 -0.126499
-0.062552 -0.294886 0.157868 -0.367840 -0.885556 -0.283608
0.125103 -0.282971 0.181697 0.149022 -0.976714 -0.154149
-0.125103 -0.282971 0.181697 -0.149022 -0.976714 -0.154149
-0.166804 -0.303822 0.208505 -0.308451 -0.951201 0.003845
-0.163826 -0.274035 0.166804 -0.219001 -0.975005 0.037141
0.163826 -0.274035 0.166804 0.219001 -0.975005 0.037141
-0.229356 -0.253185 0.142975 -0.225410 -0.904996 -0.360759
0.229356 -0.253185 0.142975 0.225410 -0.904996 -0.360759
-0.244249 -0.247228 0.113189 -0.358806 -0.925748 -0.119175
0.244249 -0.247228 0.113189 0.358806 -0.925748 -0.119175
-0.238292 -0.247228 0.071488 -0.460219 -0.872280 -0.165105
0.238292 -0.247228 0.071488 0.460219 -0.872280 -0.165105
-0.235313 -0.238292 0.020851 -0.499130 -0.780663 -0.376049
-0.187655 -0.256164 0.023829 -0.427900 -0.815577 -0.389508
0.187655 -0.256164 0.023829 0.427900 -0.815577 -0.389508
-0.142975 -0.268078 0.005957 -0.332163 -0.868984 -0.366680
0.047658 -0.309779 -0.038722 0.040162 -0.961394 -0.272134
0.142975 -0.268078 0.005957 0.332163 -0.868984 -0.366680
-0.047658 -0.309779 -0.038722 -0.040162 -0.961394 -0.272134
-0.077445 -0.282971 0.035744 0.152196 -0.954924 -0.254830
0.077445 -0.282971 0.035744 -0.152196 -0.954924 -0.254830
0.062552 -0.285950 0.053616 -0.239296 -0.923032 -0.301187
0.000000 -0.277014 0.017872 0.000000 -0.997925 0.064272
-0.062552 -0.285950 0.053616 0.239296 -0.923032 -0.301187
0.047658 -0.291907 0.116167 0.031587 -0.983459 -0.178167
-0.047658 -0.291907 0.116167 -0.031587 -0.983459 -0.178167
0.000000 -0.291907 0.080423 0.000000 -0.975036 -0.221992
0.050637 -0.288929 0.080423 -0.200568 -0.970306 -0.134953
0.023829 -0.265100 -0.336587 -0.058870 -0.923734 -0.378430
0.000000 -0.262121 -0.339566 0.000000 -0.938017 -0.346507
-0.023829 -0.265100 -0.336587 0.058870 -0.923734 -0.378430
0.044680 -0.271057 -0.318715 0.130711 -0.938810 -0.318644
-0.044680 -0.271057 -0.318715 -0.130711 -0.938810 -0.318644
-0.041701 -0.279993 -0.274035 -0.145940 -0.981933 -0.120182
0.029786 -0.285950 -0.169783 0.134098 -0.990936 0.006256
0.044680 -0.279993 -0.262121 0.181524 -0.982330 -0.045198
-0.044680 -0.279993 -0.262121 -0.181524 -0.982330 -0.045198
-0.029786 -0.285950 -0.169783 -0.134098 -0.990936 0.006256
0.041701 -0.279993 -0.274035 0.145940 -0.981933 -0.120182
0.000000 -0.282971 -0.125103 0.000000 -0.879452 -0.475936
0.000000 -0.285950 -0.169783 0.000000 -1.000000 0.000000
-0.032765 -0.282971 -0.110210 -0.500259 -0.751946 -0.429243
0.000000 -0.279993 -0.259142 0.000000 -0.999390 -0.034059
0.000000 -0.279993 -0.291907 0.000000 -0.809595 -0.586963
0.047658 -0.285950 -0.086381 0.930387 -0.344798 -0.124241
0.050637 -0.303822 -0.086381 0.930570 -0.280404 -0.235328
0.035744 -0.297865 -0.104253 0.583575 -0.423475 -0.692862
-0.035744 -0.297865 -0.104253 -0.583575 -0.423475 -0.692862
-0.050637 -0.303822 -0.086381 -0.930570 -0.280404 -0.235328
-0.047658 -0.285950 -0.086381 -0.930387 -0.344798 -0.124241
0.038722 -0.282971 -0.056594 0.493118 -0.800226 -0.341197
0.041701 -0.297865 -0.050637 0.628590 -0.117740 0.768761
-0.041701 -0.297865 -0.050637 -0.628590 -0.117740 0.768761
-0.038722 -0.282971 -0.056594 -0.493118 -0.800226 -0.341197
0.014893 -0.297865 -0.047658 -0.240516 -0.203558 0.949034
-0.014893 -0.297865 -0.047658 0.240516 -0.203558 0.949034
0.000000 -0.282971 -0.053616 0.000000 -0.856227 0.516556
0.000000 -0.303822 -0.071488 0.000000 -0.559648 0.828700
0.000000 -0.285950 -0.074466 0.000000 -0.967711 -0.251991
0.032765 -0.282971 -0.110210 0.500259 -0.751946 -0.429243
0.000000 -0.297865 -0.122124 0.000000 -0.501053 -0.865383
0.029786 -0.306801 -0.095317 0.183294 -0.789026 -0.586352
0.000000 -0.306801 -0.110210 0.000000 -0.876431 -0.481521
0.000000 -0.315737 -0.077445 0.000000 -0.987457 0.157842
0.017872 -0.309779 -0.056594 -0.185736 -0.781487 0.595599
-0.017872 -0.309779 -0.056594 0.185736 -0.781487 0.595599
0.035744 -0.309779 -0.059573 0.361095 -0.804651 0.471267
-0.035744 -0.309779 -0.059573 -0.361095 -0.804651 0.471267
0.041701 -0.315737 -0.086381 0.448805 -0.836360 -0.314707
-0.029786 -0.306801 -0.095317 -0.183294 -0.789026 -0.586352
-0.041701 -0.315737 -0.086381 -0.448805 -0.836360 -0.314707
0.062552 -0.271057 -0.092338 0.775140 -0.630573 0.038667
-0.062552 -0.271057 -0.092338 -0.775140 -0.630573 0.038667
0.068509 -0.271057 -0.119146 0.650655 -0.744652 0.148747
-0.068509 -0.271057 -0.119146 -0.650655 -0.744652 0.148747
0.098295 -0.211484 -0.119146 0.927763 -0.120884 0.353008
-0.098295 -0.211484 -0.119146 -0.927763 -0.120884 0.353008
0.089359 -0.211484 -0.095317 0.930601 -0.126347 0.343516
-0.089359 -0.211484 -0.095317 -0.930601 -0.126347 0.343516
0.000000 -0.274035 -0.294886 0.000000 -0.273232 -0.961943
0.035744 -0.277014 -0.282971 -0.136845 -0.838588 -0.527268
-0.035744 -0.277014 -0.282971 0.136845 -0.838588 -0.527268
0.035744 -0.271057 -0.312758 -0.635121 -0.771203 0.042756
-0.035744 -0.271057 -0.312758 0.635121 -0.771203 0.042756
0.017872 -0.262121 -0.330630 -0.414106 -0.701621 0.579821
-0.017872 -0.262121 -0.330630 0.414106 -0.701621 0.579821
0.017872 -0.241270 -0.324672 -0.295846 -0.828761 0.474960
0.000000 -0.241270 -0.327651 0.000000 -0.845851 0.533403
0.000000 -0.262121 -0.333608 0.000000 -0.829310 0.558763
0.035744 -0.244249 -0.309779 -0.673757 -0.729850 0.115452
-0.035744 -0.244249 -0.309779 0.673757 -0.729850 0.115452
0.035744 -0.253185 -0.285950 -0.517655 -0.486007 -0.704123
-0.035744 -0.253185 -0.285950 0.517655 -0.486007 -0.704123
0.000000 -0.250206 -0.297865 0.000000 -0.715171 -0.698935
-0.017872 -0.241270 -0.324672 0.295846 -0.828761 0.474960
0.071488 -0.294886 0.059573 -0.010102 -0.997467 -0.069979
-0.071488 -0.294886 0.059573 0.010102 -0.997467 -0.069979
-0.050637 -0.288929 0.080423 0.200568 -0.970306 -0.134953
0.065530 -0.297865 0.083402 0.158055 -0.983825 -0.084231
-0.065530 -0.297865 0.083402 -0.158055 -0.983825 -0.084231
0.068509 -0.297865 0.113189 0.293405 -0.954070 -0.060152
0.080423 -0.297865 0.142975 0.158788 -0.981536 -0.106449
-0.080423 -0.297865 0.142975 -0.158788 -0.981536 -0.106449
0.086381 -0.297865 0.041701 -0.031709 -0.975005 -0.219794
0.142975 -0.282971 0.023829 0.184454 -0.964995 -0.186316
-0.142975 -0.282971 0.023829 -0.184454 -0.964995 -0.186316
0.181697 -0.274035 0.038722 0.298990 -0.953581 -0.035615
-0.181697 -0.274035 0.038722 -0.298990 -0.953581 -0.035615
0.220420 -0.259142 0.074466 0.294290 -0.950224 -0.102023
-0.220420 -0.259142 0.074466 -0.294290 -0.950224 -0.102023
0.223398 -0.262121 0.110210 0.177587 -0.982208 -0.060762
-0.223398 -0.262121 0.110210 -0.177587 -0.982208 -0.060762
0.214463 -0.265100 0.134039 0.294351 -0.955657 0.004639
0.160847 -0.294886 0.151911 0.088687 -0.987884 -0.127171
-0.214463 -0.265100 0.134039 -0.294351 -0.955657 0.004639
0.128082 -0.288929 0.163826 0.203619 -0.973571 0.103183
-0.128082 -0.288929 0.163826 -0.203619 -0.973571 0.103183
0.104253 -0.294886 0.160847 0.143498 -0.984893 0.096591
-0.104253 -0.294886 0.160847 -0.143498 -0.984893 0.096591
0.062552 -0.294886 0.157868 0.367840 -0.885556 -0.283608
0.089359 -0.288929 0.137018 0.450819 -0.761376 -0.465835
0.107231 -0.291907 0.151911 0.288583 -0.916013 -0.278542
-0.107231 -0.291907 0.151911 -0.288583 -0.916013 -0.278542
0.128082 -0.285950 0.154890 0.113315 -0.942564 -0.314188
0.157868 -0.285950 0.148932 -0.274026 -0.439100 -0.855617
-0.160847 -0.294886 0.151911 -0.088687 -0.987884 -0.127171
-0.157868 -0.285950 0.148932 0.274026 -0.439100 -0.855617
0.202548 -0.259142 0.128082 -0.142338 -0.800165 -0.582629
-0.202548 -0.259142 0.128082 0.142338 -0.800165 -0.582629
0.211484 -0.256164 0.107231 -0.422926 -0.899716 -0.107761
0.208505 -0.256164 0.080423 -0.192145 -0.962523 0.191351
-0.208505 -0.256164 0.080423 0.192145 -0.962523 0.191351
0.175740 -0.268078 0.044680 -0.165288 -0.775109 0.609790
0.142975 -0.277014 0.032765 0.143071 -0.816919 0.558672
-0.142975 -0.277014 0.032765 -0.143071 -0.816919 0.558672
0.092338 -0.288929 0.047658 0.432264 -0.687643 0.583300
-0.086381 -0.297865 0.041701 0.031709 -0.975005 -0.219794
-0.092338 -0.288929 0.047658 -0.432264 -0.687643 0.583300
0.074466 -0.288929 0.113189 0.789361 -0.579302 -0.203192
-0.074466 -0.288929 0.113189 -0.789361 -0.579302 -0.203192
-0.068509 -0.297865 0.113189 -0.293405 -0.954070 -0.060152
0.074466 -0.285950 0.086381 0.801630 -0.597674 0.010987
-0.074466 -0.285950 0.086381 -0.801630 -0.597674 0.010987
0.077445 -0.285950 0.065530 0.688040 -0.661397 0.298441
-0.077445 -0.285950 0.065530 -0.688040 -0.661397 0.298441
0.041701 -0.232334 0.175740 -0.460250 -0.212683 0.861904
-0.041701 -0.232334 0.175740 0.460250 -0.212683 0.861904
0.074466 -0.235313 0.253185 -0.479202 0.712882 0.511948
-0.074466 -0.235313 0.253185 0.479202 0.712882 0.511948
0.128082 -0.226377 0.262121 0.121708 0.749840 0.650288
0.184676 -0.211484 0.211484 0.227485 0.428266 0.874508
-0.128082 -0.226377 0.262121 -0.121708 0.749840 0.650288
0.259142 -0.187655 0.172761 0.345531 0.219123 0.912442
-0.184676 -0.211484 0.211484 -0.227485 0.428266 0.874508
0.303822 -0.175740 0.154890 0.695700 0.421827 0.581378
-0.303822 -0.175740 0.154890 -0.695700 0.421827 0.581378
0.294886 -0.142975 0.062552 0.930204 0.202338 -0.306192
0.229356 -0.157868 0.000000 0.544328 0.053316 -0.837153
-0.229356 -0.157868 0.000000 -0.544328 0.053316 -0.837153
0.166804 -0.178719 -0.035744 0.471969 0.176794 -0.863674
-0.166804 -0.178719 -0.035744 -0.471969 0.176794 -0.863674
0.000000 -0.107231 -0.184676 0.000000 0.636708 -0.771081
0.068509 -0.098295 -0.157868 0.689322 0.278603 -0.668691
0.047658 -0.137018 -0.205527 0.277078 0.907804 -0.314737
0.000000 -0.122124 -0.217441 0.000000 0.976959 -0.213294
-0.047658 -0.137018 -0.205527 -0.277078 0.907804 -0.314737
0.053616 -0.139996 -0.288929 0.151372 0.976867 -0.150975
0.000000 -0.131060 -0.306801 0.000000 0.954741 -0.297342
-0.053616 -0.139996 -0.288929 -0.151372 0.976867 -0.150975
0.062552 -0.166804 -0.360416 0.067476 0.618122 -0.783166
0.000000 -0.175740 -0.372331 0.000000 0.471603 -0.881802
-0.062552 -0.166804 -0.360416 -0.067476 0.618122 -0.783166
0.125103 -0.199569 -0.360416 0.526658 -0.161107 -0.834651
0.125103 -0.151911 -0.348502 0.555071 0.681967 -0.476211
-0.125103 -0.151911 -0.348502 -0.555071 0.681967 -0.476211
0.110210 -0.145954 -0.271057 0.620380 0.779809 0.083468
-0.110210 -0.145954 -0.271057 -0.620380 0.779809 0.083468
0.095317 -0.148932 -0.190633 0.779839 0.625843 -0.010498
-0.095317 -0.148932 -0.190633 -0.779839 0.625843 -0.010498
-0.089359 -0.154890 -0.134039 -0.895657 0.362407 0.257729
-0.068509 -0.098295 -0.157868 -0.689322 0.278603 -0.668691
0.083402 -0.163826 -0.107231 0.978698 -0.061495 -0.195837
0.080423 -0.178719 -0.086381 0.887173 -0.433607 -0.157720
-0.083402 -0.163826 -0.107231 -0.978698 -0.061495 -0.195837
0.089359 -0.154890 -0.134039 0.895657 0.362407 0.257729
0.077445 -0.190633 -0.065530 0.785699 -0.236732 -0.571459
-0.077445 -0.190633 -0.065530 -0.785699 -0.236732 -0.571459
0.128082 0.253185 0.020851 0.445479 0.820399 -0.358348
0.131060 0.205527 -0.056594 0.522263 0.547685 -0.653615
0.000000 0.256164 -0.074466 0.000000 0.722587 -0.691275
-0.128082 0.253185 0.020851 -0.445479 0.820399 -0.358348
0.000000 0.315737 0.026808 0.000000 0.952361 -0.304941
0.113189 0.101274 -0.119146 0.507065 0.203314 -0.837581
0.000000 0.134039 -0.145954 0.000000 0.336528 -0.941649
-0.131060 0.205527 -0.056594 -0.522263 0.547685 -0.653615
0.080423 -0.062552 -0.148932 0.572680 -0.011994 -0.819666
-0.080423 -0.062552 -0.148932 -0.572680 -0.011994 -0.819666
-0.113189 0.101274 -0.119146 -0.507065 0.203314 -0.837581
0.000000 -0.071488 -0.175740 0.000000 0.183294 -0.983032
0.279993 -0.026808 -0.017872 0.721030 -0.065065 -0.689810
-0.279993 -0.026808 -0.017872 -0.721030 -0.065065 -0.689810
-0.294886 -0.142975 0.062552 -0.930204 0.202338 -0.306192
0.175740 0.268078 0.166804 0.473006 0.863216 0.176305
-0.175740 0.268078 0.166804 -0.473006 0.863216 0.176305
0.000000 0.324672 0.214463 0.000000 0.930967 0.365032
0.172761 -0.089359 0.324672 0.444227 -0.527085 0.724418
0.172761 0.026808 0.354459 0.413495 -0.039460 0.909635
0.000000 0.029786 0.375309 0.000000 -0.022584 0.999725
-0.172761 -0.089359 0.324672 -0.444227 -0.527085 0.724418
0.000000 -0.110210 0.342544 0.000000 -0.556810 0.830622
0.172761 0.145954 0.330630 0.391247 0.426832 0.815271
-0.172761 0.145954 0.330630 -0.391247 0.426832 0.815271
-0.172761 0.026808 0.354459 -0.413495 -0.039460 0.909635
0.000000 0.208505 0.342544 0.000000 0.551378 0.834223
0.277014 -0.128082 0.154890 0.771722 -0.078494 0.631062
-0.277014 -0.128082 0.154890 -0.771722 -0.078494 0.631062
-0.259142 -0.187655 0.172761 -0.345531 0.219123 0.912442
0.241270 -0.107231 0.172761 0.444411 -0.425031 0.788537
0.303822 -0.047658 0.214463 0.741752 -0.427839 0.516434
-0.303822 -0.047658 0.214463 -0.741752 -0.427839 0.516434
-0.241270 -0.107231 0.172761 -0.444411 -0.425031 0.788537
0.244249 -0.020851 0.268078 0.668172 -0.319498 0.671865
0.303822 0.044680 0.235313 0.848628 0.014008 0.528764
-0.303822 0.044680 0.235313 -0.848628 0.014008 0.528764
-0.244249 -0.020851 0.268078 -0.668172 -0.319498 0.671865
0.244249 0.074466 0.285950 0.678396 0.069521 0.731376
0.303822 0.137018 0.205527 0.872158 0.374645 0.314554
-0.303822 0.137018 0.205527 -0.872158 0.374645 0.314554
-0.244249 0.074466 0.285950 -0.678396 0.069521 0.731376
0.235313 0.223398 0.125103 0.619648 0.782525 -0.060457
0.244249 0.169783 0.259142 0.607532 0.553575 0.569567
-0.235313 0.223398 0.125103 -0.619648 0.782525 -0.060457
-0.294886 0.166804 0.101274 -0.670766 0.740257 -0.045289
-0.244249 0.169783 0.259142 -0.607532 0.553575 0.569567
0.175740 -0.163826 0.199569 0.340648 -0.322306 0.883206
-0.175740 -0.163826 0.199569 -0.340648 -0.322306 0.883206
0.000000 -0.217441 0.217441 0.000000 -0.848445 0.529252
0.000000 -0.229356 0.154890 0.000000 -0.511612 0.859188
0.324672 -0.020851 0.089359 0.985015 -0.063051 -0.160466
0.327651 0.017872 0.122124 0.998321 0.050172 -0.028260
-0.327651 0.017872 0.122124 -0.998321 0.050172 -0.028260
-0.324672 -0.020851 0.089359 -0.985015 -0.063051 -0.160466
0.312758 0.077445 0.125103 0.840297 -0.224586 0.493362
-0.312758 0.077445 0.125103 -0.840297 -0.224586 0.493362
0.163826 0.080423 -0.074466 0.563280 0.121311 -0.817286
0.154890 -0.056594 -0.065530 0.579028 -0.142705 -0.802698
-0.154890 -0.056594 -0.065530 -0.579028 -0.142705 -0.802698
0.226377 0.062552 -0.047658 0.312296 -0.001160 -0.949950
-0.226377 0.062552 -0.047658 -0.312296 -0.001160 -0.949950
-0.080423 -0.178719 -0.086381 -0.887173 -0.433607 -0.157720
0.244249 0.163826 -0.002979 0.325510 0.728355 -0.602924
0.184676 0.208505 0.008936 0.529221 0.681722 -0.505112
-0.244249 0.163826 -0.002979 -0.325510 0.728355 -0.602924
-0.163826 0.080423 -0.074466 -0.563280 0.121311 -0.817286
-0.184676 0.208505 0.008936 -0.529221 0.681722 -0.505112
0.339566 0.089359 0.154890 -0.279244 -0.575884 0.768303
0.351480 0.083402 0.137018 0.449232 -0.892575 -0.038331
0.387224 0.110210 0.157868 0.551164 -0.830622 -0.078768
-0.339566 0.089359 0.154890 0.279244 -0.575884 0.768303
-0.390203 0.119146 0.181697 -0.018799 -0.488632 0.872250
-0.387224 0.110210 0.157868 -0.551164 -0.830622 -0.078768
0.390203 0.119146 0.181697 0.018799 -0.488632 0.872250
0.452754 0.148932 0.166804 0.321451 -0.942381 -0.092318
-0.452754 0.148932 0.166804 -0.321451 -0.942381 -0.092318
0.482541 0.154890 0.110210 -0.154454 -0.980193 -0.123875
0.515306 0.160847 0.122124 0.778802 -0.604389 0.167791
-0.470626 0.160847 0.193612 -0.383557 -0.328776 0.862972
-0.515306 0.160847 0.122124 -0.778802 -0.604389 0.167791
0.461690 0.154890 0.029786 -0.041108 -0.949553 0.310831
0.488498 0.163826 0.020851 0.652608 -0.588794 -0.476821
-0.482541 0.154890 0.110210 0.154454 -0.980193 -0.123875
-0.488498 0.163826 0.020851 -0.652608 -0.588794 -0.476821
0.393181 0.116167 -0.014893 0.538377 -0.789239 0.295267
0.396160 0.125103 -0.038722 0.502884 -0.370312 -0.780999
-0.461690 0.154890 0.029786 0.041108 -0.949553 0.310831
-0.396160 0.125103 -0.038722 -0.502884 -0.370312 -0.780999
0.315737 0.050637 -0.026808 0.329936 -0.889645 0.315653
-0.315737 0.050637 -0.026808 -0.329936 -0.889645 0.315653
-0.393181 0.116167 -0.014893 -0.538377 -0.789239 0.295267
0.396160 0.139996 0.000000 -0.186804 -0.235084 0.953825
0.336587 0.080423 -0.008936 0.162877 -0.487014 0.858028
-0.336587 0.080423 -0.008936 -0.162877 -0.487014 0.858028
-0.396160 0.139996 0.000000 0.186804 -0.235084 0.953825
0.452754 0.169783 0.035744 -0.762139 0.019318 0.647084
-0.452754 0.169783 0.035744 0.762139 0.019318 0.647084
0.470626 0.169783 0.095317 -0.984741 -0.142613 -0.099582
-0.470626 0.169783 0.095317 0.984741 -0.142613 -0.099582
0.446797 0.166804 0.137018 -0.149571 -0.649464 -0.745506
-0.446797 0.166804 0.137018 0.149571 -0.649464 -0.745506
0.390203 0.137018 0.131060 0.560442 -0.499100 -0.660878
-0.390203 0.137018 0.131060 -0.560442 -0.499100 -0.660878
0.360416 0.110210 0.116167 0.684194 -0.472182 -0.555773
-0.360416 0.110210 0.116167 -0.684194 -0.472182 -0.555773
-0.351480 0.083402 0.137018 -0.449232 -0.892575 -0.038331
0.274035 0.065530 -0.008936 0.731193 -0.672475 0.114414
0.277014 0.026808 0.000000 0.857204 0.148289 -0.493118
-0.277014 0.026808 0.000000 -0.857204 0.148289 -0.493118
0.294886 0.047658 -0.053616 0.029542 -0.771905 -0.634999
-0.294886 0.047658 -0.053616 -0.029542 -0.771905 -0.634999
-0.274035 0.065530 -0.008936 -0.731193 -0.672475 0.114414
0.321694 0.080423 0.110210 0.794916 -0.560076 -0.233192
-0.321694 0.080423 0.110210 -0.794916 -0.560076 -0.233192
0.309779 0.104253 -0.005957 0.599841 -0.613880 0.513138
-0.309779 0.104253 -0.005957 -0.599841 -0.613880 0.513138
0.274035 0.071488 0.014893 0.960936 -0.249855 -0.118839
-0.274035 0.071488 0.014893 -0.960936 -0.249855 -0.118839
-0.321694 0.104253 0.005957 -0.842036 -0.509781 -0.176244
0.288929 0.104253 0.035744 0.851466 -0.522752 0.041353
0.321694 0.104253 0.005957 0.842036 -0.509781 -0.176244
-0.288929 0.104253 0.035744 -0.851466 -0.522752 0.041353
0.303822 0.080423 0.077445 0.830256 -0.284982 -0.478957
-0.303822 0.080423 0.077445 -0.830256 -0.284982 -0.478957
-0.318715 0.104253 0.065530 -0.686361 -0.374554 -0.623371
0.318715 0.104253 0.065530 0.686361 -0.374554 -0.623371
0.339566 0.101274 0.092338 0.726066 -0.473128 -0.498917
-0.339566 0.101274 0.092338 -0.726066 -0.473128 -0.498917
0.339566 0.122124 0.089359 0.659291 -0.588061 -0.468490
-0.339566 0.122124 0.089359 -0.659291 -0.588061 -0.468490
0.321694 0.122124 0.065530 0.572527 -0.704733 -0.418928
0.291907 0.122124 0.035744 0.758354 -0.594806 0.266518
-0.291907 0.122124 0.035744 -0.758354 -0.594806 0.266518
0.312758 0.104253 0.032765 0.481368 -0.604816 0.634388
0.315737 0.122124 0.029786 0.449232 -0.808618 0.379864
-0.312758 0.104253 0.032765 -0.481368 -0.604816 0.634388
0.324672 0.122124 0.005957 0.292917 -0.881222 0.370922
-0.315737 0.122124 0.029786 -0.449232 -0.808618 0.379864
0.309779 0.122124 -0.005957 0.644978 -0.698386 0.310129
-0.309779 0.122124 -0.005957 -0.644978 -0.698386 0.310129
0.336587 0.101274 -0.005957 -0.033113 -0.325602 0.944914
-0.336587 0.101274 -0.005957 0.033113 -0.325602 0.944914
0.363395 0.131060 0.110210 0.648213 -0.634724 -0.420576
-0.363395 0.131060 0.110210 -0.648213 -0.634724 -0.420576
0.396160 0.157868 0.125103 0.461776 -0.823664 -0.329142
-0.396160 0.157868 0.125103 -0.461776 -0.823664 -0.329142
0.452754 0.184676 0.131060 -0.262398 -0.804346 -0.533067
-0.452754 0.184676 0.131060 0.262398 -0.804346 -0.533067
0.479562 0.187655 0.092338 -0.752861 -0.657277 -0.033784
0.461690 0.184676 0.032765 -0.583117 -0.640339 0.499893
-0.461690 0.184676 0.032765 0.583117 -0.640339 0.499893
0.399139 0.160847 0.000000 0.065004 -0.707358 0.703848
-0.399139 0.160847 0.000000 -0.065004 -0.707358 0.703848
0.357438 0.128082 0.023829 0.408429 -0.903836 0.127262
0.339566 0.125103 0.041701 0.195105 -0.979980 0.038942
-0.324672 0.122124 0.005957 -0.292917 -0.881222 0.370922
-0.339566 0.125103 0.041701 -0.195105 -0.979980 0.038942
0.381267 0.139996 0.047658 0.444807 -0.890683 -0.093692
0.366373 0.134039 0.065530 0.334666 -0.942289 -0.004578
-0.357438 0.128082 0.023829 -0.408429 -0.903836 0.127262
-0.366373 0.134039 0.065530 -0.334666 -0.942289 -0.004578
0.402117 0.145954 0.071488 0.314371 -0.943602 -0.103732
-0.402117 0.145954 0.071488 -0.314371 -0.943602 -0.103732
-0.381267 0.139996 0.047658 -0.444807 -0.890683 -0.093692
0.422968 0.148932 0.080423 0.383129 -0.921140 -0.068514
0.414032 0.148932 0.104253 0.289651 -0.903500 0.315806
-0.387224 0.142975 0.089359 -0.334300 -0.936369 0.106754
-0.414032 0.148932 0.104253 -0.289651 -0.903500 0.315806
0.387224 0.142975 0.089359 0.334300 -0.936369 0.106754
-0.321694 0.122124 0.065530 -0.572527 -0.704733 -0.418928
-0.422968 0.148932 0.080423 -0.383129 -0.921140 -0.068514
-0.479562 0.187655 0.092338 0.752861 -0.657277 -0.033784
0.300843 0.125103 -0.047658 -0.098849 0.532151 -0.840846
-0.300843 0.125103 -0.047658 0.098849 0.532151 -0.840846
0.396160 0.187655 -0.032765 -0.025269 0.733116 -0.679586
-0.396160 0.187655 -0.032765 0.025269 0.733116 -0.679586
0.500413 0.202548 0.020851 0.636586 0.583392 -0.504318
0.521263 0.190633 0.113189 0.925260 0.367992 0.091830
-0.521263 0.190633 0.113189 -0.925260 0.367992 0.091830
0.476583 0.208505 0.178719 0.286996 0.748497 0.597766
-0.476583 0.208505 0.178719 -0.286996 0.748497 0.597766
0.470626 0.160847 0.193612 0.383557 -0.328776 0.862972
0.390203 0.184676 0.166804 -0.414228 0.724479 0.550890
-0.390203 0.184676 0.166804 0.414228 0.724479 0.550890
0.327651 0.145954 0.145954 -0.650044 0.485336 0.584643
-0.327651 0.145954 0.145954 0.650044 0.485336 0.584643
-0.500413 0.202548 0.020851 -0.636586 0.583392 -0.504318
0.294886 0.166804 0.101274 0.670766 0.740257 -0.045289
-0.238292 -0.214463 0.092338 -0.868221 -0.496109 -0.004730
-0.089359 -0.288929 0.137018 -0.450819 -0.761376 -0.465835
-0.128082 -0.285950 0.154890 -0.113315 -0.942564 -0.314188
-0.211484 -0.256164 0.107231 0.422926 -0.899716 -0.107761
-0.175740 -0.268078 0.044680 0.165288 -0.775109 0.609790
3 0 1 2
3 3 4 5
3 6 2 7
3 8 3 9
3 2 10 11
3 12 13 3
3 1 14 10
3 13 15 4
3 14 16 17
3 18 19 15
3 10 17 20
3 21 18 13
3 22 23 20
3 24 18 21
3 16 25 22
3 24 26 19
3 25 27 28
3 29 30 26
3 28 31 23
3 29 24 32
3 33 34 31
3 35 29 36
3 37 33 28
3 38 30 29
3 39 40 33
3 41 38 35
3 40 42 34
3 43 35 44
3 6 45 42
3 9 43 46
3 0 6 40
3 5 41 43
3 39 47 48
3 41 5 49
3 37 50 47
3 38 41 51
3 27 52 50
3 30 38 53
3 25 54 52
3 26 30 55
3 25 16 56
3 57 19 26
3 16 14 58
3 59 15 19
3 14 1 60
3 61 4 15
3 1 0 48
3 49 5 4
3 62 60 48
3 49 61 63
3 58 60 62
3 63 61 59
3 62 56 58
3 59 57 63
3 62 54 56
3 57 64 63
3 62 52 54
3 64 55 63
3 62 50 52
3 55 53 63
3 62 47 50
3 53 51 63
3 62 48 47
3 51 49 63
3 65 66 67
3 68 69 67
3 70 65 71
3 72 73 69
3 74 75 70
3 72 76 77
3 78 79 75
3 76 80 81
3 82 83 79
3 80 84 85
3 86 87 88
3 89 90 91
3 92 93 88
3 94 90 89
3 92 95 96
3 97 98 94
3 99 100 96
3 101 98 97
3 102 103 100
3 104 101 105
3 106 107 103
3 108 104 109
3 106 110 111
3 112 113 108
3 114 115 111
3 116 113 112
3 117 118 115
3 119 116 120
3 121 122 118
3 121 119 123
3 124 115 118
3 125 126 123
3 124 127 111
3 112 128 125
3 107 111 127
3 129 130 128
3 103 107 131
3 109 132 130
3 100 103 133
3 105 134 132
3 96 100 135
3 97 136 134
3 93 96 137
3 138 139 136
3 88 93 140
3 89 141 139
3 142 88 143
3 144 145 141
3 146 147 148
3 148 149 145
3 118 122 150
3 123 126 151
3 150 122 152
3 152 122 151
3 147 153 152
3 149 148 152
3 154 155 66
3 66 155 156
3 157 154 65
3 68 156 158
3 157 70 75
3 158 159 76
3 83 160 161
3 162 163 84
3 164 75 79
3 80 76 159
3 165 166 160
3 165 167 163
3 160 166 168
3 163 162 168
3 164 161 168
3 159 169 168
3 170 171 172
3 173 174 175
3 176 177 171
3 174 178 179
3 180 177 176
3 181 182 179
3 183 180 182
3 183 184 182
3 185 172 186
3 167 165 186
3 172 187 188
3 173 186 188
3 183 189 190
3 191 189 183
3 180 190 192
3 193 191 181
3 192 194 171
3 193 178 174
3 171 194 187
3 195 196 174
3 194 192 190
3 196 189 191
3 189 188 187
3 195 188 189
3 182 176 142
3 144 179 182
3 176 170 197
3 198 175 179
3 185 199 197
3 167 175 198
3 160 83 199
3 163 167 200
3 201 199 83
3 202 85 84
3 203 197 199
3 204 202 200
3 86 142 197
3 198 144 91
3 169 205 206
3 169 159 207
3 157 164 206
3 207 159 158
3 154 157 208
3 209 158 156
3 155 154 210
3 211 156 155
3 210 212 213
3 211 214 213
3 210 208 215
3 216 209 211
3 208 206 217
3 218 207 209
3 205 219 217
3 205 207 218
3 219 213 212
3 220 213 219
3 217 212 215
3 216 220 218
3 153 147 221
3 222 149 223
3 150 153 224
3 225 223 151
3 150 226 227
3 151 126 228
3 146 229 221
3 145 149 222
3 146 143 230
3 231 141 145
3 143 140 232
3 233 139 141
3 140 137 234
3 235 136 139
3 137 135 236
3 237 134 136
3 133 238 236
3 132 134 237
3 131 239 238
3 130 132 240
3 131 127 241
3 242 128 130
3 127 124 243
3 244 125 128
3 124 245 227
3 228 126 125
3 227 246 247
3 228 244 248
3 241 243 247
3 248 244 242
3 241 249 250
3 242 251 252
3 239 250 253
3 251 240 254
3 236 238 253
3 254 240 237
3 236 255 256
3 237 235 257
3 232 234 256
3 257 235 233
3 232 258 259
3 233 231 260
3 230 259 261
3 231 262 263
3 221 229 261
3 263 262 222
3 227 226 264
3 265 266 228
3 226 224 267
3 268 225 266
3 224 221 269
3 270 222 225
3 121 117 271
3 272 119 121
3 117 114 273
3 274 116 119
3 110 275 273
3 113 116 274
3 106 276 275
3 108 113 277
3 102 278 276
3 104 108 279
3 102 99 280
3 281 101 104
3 95 282 280
3 98 101 281
3 95 92 283
3 284 94 98
3 92 87 285
3 286 90 94
3 287 288 289
3 287 290 291
3 290 289 292
3 290 293 294
3 293 292 295
3 293 296 297
3 71 67 296
3 296 67 69
3 298 71 295
3 297 69 73
3 74 298 299
3 300 73 77
3 78 74 301
3 302 77 81
3 301 292 289
3 291 294 302
3 299 295 292
3 300 302 294
3 303 289 288
3 304 305 306
3 82 78 303
3 304 81 85
3 307 308 203
3 309 202 204
3 310 307 201
3 305 85 202
3 203 308 311
3 204 91 312
3 311 285 87
3 312 91 90
3 313 314 315
3 316 317 315
3 314 318 319
3 320 315 319
3 319 318 321
3 322 323 319
3 324 321 288
3 306 322 324
3 288 321 307
3 306 305 309
3 282 283 325
3 326 284 327
3 328 313 317
3 329 330 317
3 331 332 333
3 334 335 333
3 333 332 336
3 337 338 333
3 339 336 328
3 329 337 339
3 278 280 340
3 341 281 342
3 343 340 344
3 345 341 346
3 347 344 348
3 349 345 350
3 351 348 352
3 353 349 354
3 355 356 352
3 357 358 353
3 328 336 356
3 359 337 329
3 336 332 351
3 354 338 337
3 332 331 347
3 350 334 338
3 331 360 343
3 346 361 334
3 278 343 360
3 342 279 361
3 360 331 335
3 361 362 335
3 271 273 275
3 277 274 272
3 271 276 360
3 361 279 272
3 363 271 362
3 362 272 363
3 282 364 340
3 327 281 341
3 364 365 344
3 345 366 367
3 365 368 348
3 349 369 366
3 352 348 368
3 353 358 369
3 318 370 371
3 323 322 372
3 371 370 373
3 372 326 374
3 283 285 371
3 372 286 284
3 285 308 307
3 309 375 286
3 307 321 371
3 372 322 309
3 285 311 308
3 375 312 286
3 376 377 355
3 378 358 357
3 355 377 313
3 357 329 316
3 370 377 376
3 379 374 378
3 314 377 370
3 320 323 379
3 313 377 314
3 320 380 316
3 381 382 383
3 384 385 386
3 387 383 388
3 389 386 385
3 388 390 391
3 389 392 393
3 390 394 395
3 396 393 397
3 394 398 399
3 400 397 401
3 399 398 402
3 403 404 401
3 398 405 406
3 407 408 404
3 394 409 405
3 408 410 400
3 411 409 394
3 412 396 400
3 413 411 390
3 414 389 396
3 415 413 388
3 416 386 389
3 383 382 417
3 418 419 386
3 373 420 421
3 374 326 422
3 423 402 420
3 424 374 425
3 364 325 421
3 422 326 367
3 368 426 382
3 419 427 369
3 402 406 428
3 429 407 403
3 430 420 428
3 431 432 429
3 433 430 434
3 432 431 435
3 436 430 433
3 437 438 435
3 436 439 440
3 437 427 441
3 426 440 417
3 427 419 418
3 365 436 426
3 427 437 366
3 421 430 436
3 422 366 437
3 421 420 430
3 431 425 422
3 417 440 442
3 443 441 418
3 439 444 442
3 438 441 443
3 439 433 445
3 446 435 438
3 447 448 445
3 449 435 446
3 434 450 448
3 432 449 451
3 434 428 452
3 453 429 432
3 428 406 454
3 455 407 429
3 415 417 456
3 457 418 416
3 413 415 458
3 459 416 414
3 411 413 460
3 461 414 412
3 411 462 463
3 412 410 464
3 409 463 465
3 410 408 466
3 405 465 454
3 408 407 455
3 450 467 468
3 469 451 470
3 467 471 472
3 473 470 474
3 472 471 475
3 476 477 474
3 475 478 479
3 476 480 481
3 458 456 482
3 480 457 459
3 472 482 456
3 474 443 457
3 444 468 472
3 483 443 474
3 448 468 444
3 483 470 451
3 454 467 450
3 455 453 469
3 465 471 467
3 473 477 466
3 475 471 465
3 476 464 466
3 478 475 463
3 484 485 464
3 460 479 478
3 484 481 461
3 458 479 460
3 461 481 459
3 399 423 486
3 487 424 401
3 395 399 488
3 489 401 397
3 395 490 491
3 397 393 492
3 391 491 493
3 393 392 494
3 495 493 496
3 392 385 497
3 387 496 498
3 385 384 499
3 488 486 498
3 489 497 499
3 496 493 490
3 500 494 497
3 493 491 490
3 500 492 494
3 368 381 498
3 369 358 499
3 501 498 486
3 487 499 358
3 373 376 486
3 487 378 374
3 6 0 2
3 9 3 5
3 45 6 7
3 502 8 9
3 7 2 11
3 8 12 3
3 2 1 10
3 3 13 4
3 10 14 17
3 13 18 15
3 11 10 20
3 12 21 13
3 17 22 20
3 32 24 21
3 17 16 22
3 18 24 19
3 22 25 28
3 24 29 26
3 22 28 23
3 36 29 32
3 28 33 31
3 44 35 36
3 27 37 28
3 35 38 29
3 37 39 33
3 43 41 35
3 33 40 34
3 46 43 44
3 40 6 42
3 502 9 46
3 39 0 40
3 9 5 43
3 0 39 48
3 51 41 49
3 39 37 47
3 53 38 51
3 37 27 50
3 55 30 53
3 27 25 52
3 64 26 55
3 54 25 56
3 64 57 26
3 56 16 58
3 57 59 19
3 58 14 60
3 59 61 15
3 60 1 48
3 61 49 4
3 71 65 67
3 66 68 67
3 298 70 71
3 68 72 69
3 298 74 70
3 73 72 77
3 74 78 75
3 77 76 81
3 78 82 79
3 81 80 85
3 142 86 88
3 144 89 91
3 87 92 88
3 138 94 89
3 93 92 96
3 138 97 94
3 95 99 96
3 105 101 97
3 99 102 100
3 109 104 105
3 102 106 103
3 129 108 109
3 107 106 111
3 129 112 108
3 110 114 111
3 120 116 112
3 114 117 115
3 123 119 120
3 117 121 118
3 122 121 123
3 245 124 118
3 120 125 123
3 115 124 111
3 120 112 125
3 131 107 127
3 112 129 128
3 133 103 131
3 129 109 130
3 135 100 133
3 109 105 132
3 137 96 135
3 105 97 134
3 140 93 137
3 97 138 136
3 143 88 140
3 138 89 139
3 146 142 143
3 89 144 141
3 142 146 148
3 144 148 145
3 245 118 150
3 122 123 151
3 153 150 152
3 223 152 151
3 148 147 152
3 223 149 152
3 65 154 66
3 68 66 156
3 70 157 65
3 72 68 158
3 164 157 75
3 72 158 76
3 79 83 161
3 80 162 84
3 161 164 79
3 162 80 159
3 185 165 160
3 166 165 163
3 161 160 168
3 166 163 168
3 169 164 168
3 162 159 168
3 185 170 172
3 167 173 175
3 170 176 171
3 175 174 179
3 182 180 176
3 178 181 179
3 184 183 182
3 181 183 182
3 165 185 186
3 173 167 186
3 186 172 188
3 195 173 188
3 180 183 190
3 181 191 183
3 177 180 192
3 178 193 181
3 177 192 171
3 196 193 174
3 172 171 187
3 173 195 174
3 189 194 190
3 193 196 191
3 194 189 187
3 196 195 189
3 148 182 142
3 148 144 182
3 142 176 197
3 144 198 179
3 170 185 197
3 200 167 198
3 185 160 199
3 84 163 200
3 82 201 83
3 200 202 84
3 201 203 199
3 198 204 200
3 203 86 197
3 204 198 91
3 164 169 206
3 205 169 207
3 208 157 206
3 209 207 158
3 210 154 208
3 211 209 156
3 214 155 210
3 214 211 155
3 214 210 213
3 220 211 213
3 212 210 215
3 220 216 211
3 215 208 217
3 216 218 209
3 206 205 217
3 219 205 218
3 217 219 212
3 218 220 219
3 224 153 221
3 225 222 223
3 226 150 224
3 266 225 151
3 245 150 227
3 266 151 228
3 147 146 221
3 262 145 222
3 229 146 230
3 262 231 145
3 230 143 232
3 231 233 141
3 232 140 234
3 233 235 139
3 234 137 236
3 235 237 136
3 135 133 236
3 240 132 237
3 133 131 238
3 251 130 240
3 239 131 241
3 251 242 130
3 241 127 243
3 242 244 128
3 243 124 227
3 244 228 125
3 243 227 247
3 503 228 248
3 249 241 247
3 504 248 242
3 239 241 250
3 504 242 252
3 238 239 253
3 252 251 254
3 255 236 253
3 505 254 237
3 234 236 256
3 505 237 257
3 258 232 256
3 506 257 233
3 230 232 259
3 506 233 260
3 229 230 261
3 260 231 263
3 269 221 261
3 270 263 222
3 246 227 264
3 503 265 228
3 264 226 267
3 265 268 266
3 267 224 269
3 268 270 225
3 363 121 271
3 363 272 121
3 271 117 273
3 272 274 119
3 114 110 273
3 277 113 274
3 110 106 275
3 279 108 277
3 106 102 276
3 342 104 279
3 278 102 280
3 342 281 104
3 99 95 280
3 327 98 281
3 282 95 283
3 327 284 98
3 283 92 285
3 284 286 94
3 290 287 289
3 306 287 291
3 293 290 292
3 291 290 294
3 296 293 295
3 294 293 297
3 295 71 296
3 297 296 69
3 299 298 295
3 300 297 73
3 301 74 299
3 302 300 77
3 303 78 301
3 304 302 81
3 303 301 289
3 304 291 302
3 301 299 292
3 297 300 294
3 310 303 288
3 291 304 306
3 310 82 303
3 305 304 85
3 201 307 203
3 375 309 204
3 82 310 201
3 309 305 202
3 86 203 311
3 375 204 312
3 86 311 87
3 286 312 90
3 317 313 315
3 320 316 315
3 315 314 319
3 323 320 319
3 324 319 321
3 324 322 319
3 287 324 288
3 287 306 324
3 310 288 307
3 322 306 309
3 364 282 325
3 367 326 327
3 330 328 317
3 316 329 317
3 335 331 333
3 338 334 333
3 339 333 336
3 339 337 333
3 330 339 328
3 330 329 339
3 343 278 340
3 346 341 342
3 347 343 344
3 350 345 346
3 351 347 348
3 354 349 350
3 356 351 352
3 359 353 354
3 501 355 352
3 359 357 353
3 355 328 356
3 357 359 329
3 356 336 351
3 359 354 337
3 351 332 347
3 354 350 338
3 347 331 343
3 350 346 334
3 276 278 360
3 346 342 361
3 362 360 335
3 334 361 335
3 276 271 275
3 279 277 272
3 362 271 360
3 362 361 272
3 280 282 340
3 367 327 341
3 340 364 344
3 341 345 367
3 344 365 348
3 345 349 366
3 501 352 368
3 349 353 369
3 321 318 371
3 379 323 372
3 325 371 373
3 379 372 374
3 325 283 371
3 326 372 284
3 371 285 307
3 372 309 286
3 501 376 355
3 380 378 357
3 328 355 313
3 380 357 316
3 373 370 376
3 380 379 378
3 318 314 370
3 380 320 379
3 387 381 383
3 419 384 386
3 495 387 388
3 392 389 385
3 495 388 391
3 396 389 393
3 391 390 395
3 400 396 397
3 395 394 399
3 404 400 401
3 423 399 402
3 424 403 401
3 402 398 406
3 403 407 404
3 398 394 405
3 404 408 400
3 390 411 394
3 410 412 400
3 388 413 390
3 412 414 396
3 383 415 388
3 414 416 389
3 415 383 417
3 416 418 386
3 325 373 421
3 425 374 422
3 373 423 420
3 403 424 425
3 365 364 421
3 366 422 367
3 381 368 382
3 384 419 369
3 420 402 428
3 425 429 403
3 434 430 428
3 425 431 429
3 447 433 434
3 449 432 435
3 439 436 433
3 431 437 435
3 426 436 440
3 438 437 441
3 382 426 417
3 441 427 418
3 368 365 426
3 369 427 366
3 365 421 436
3 431 422 437
3 456 417 442
3 457 443 418
3 440 439 442
3 483 438 443
3 444 439 445
3 483 446 438
3 433 447 445
3 451 449 446
3 447 434 448
3 469 432 451
3 450 434 452
3 469 453 432
3 452 428 454
3 453 455 429
3 458 415 456
3 459 457 416
3 460 413 458
3 461 459 414
3 462 411 460
3 485 461 412
3 409 411 463
3 485 412 464
3 405 409 465
3 464 410 466
3 406 405 454
3 466 408 455
3 448 450 468
3 473 469 470
3 468 467 472
3 477 473 474
3 482 472 475
3 480 476 474
3 482 475 479
3 484 476 481
3 479 458 482
3 481 480 459
3 442 472 456
3 480 474 457
3 442 444 472
3 470 483 474
3 445 448 444
3 446 483 451
3 452 454 450
3 473 455 469
3 454 465 467
3 455 473 466
3 463 475 465
3 477 476 466
3 462 478 463
3 476 484 464
3 462 460 478
3 485 484 461
3 488 399 486
3 489 487 401
3 490 395 488
3 500 489 397
3 391 395 491
3 500 397 492
3 495 391 493
3 492 393 494
3 387 495 496
3 494 392 497
3 381 387 498
3 497 385 499
3 496 488 498
3 487 489 499
3 488 496 490
3 489 500 497
3 501 368 498
3 384 369 499
3 376 501 486
3 378 487 358
3 423 373 486
3 424 487 374
