<?xml version="1.0" encoding="UTF-8" standalone="no"?>
<!-- Created with Inkscape (http://www.inkscape.org/) -->

<svg
   xmlns:dc="http://purl.org/dc/elements/1.1/"
   xmlns:cc="http://creativecommons.org/ns#"
   xmlns:rdf="http://www.w3.org/1999/02/22-rdf-syntax-ns#"
   xmlns:svg="http://www.w3.org/2000/svg"
   xmlns="http://www.w3.org/2000/svg"
   xmlns:sodipodi="http://sodipodi.sourceforge.net/DTD/sodipodi-0.dtd"
   xmlns:inkscape="http://www.inkscape.org/namespaces/inkscape"
   width="1500"
   height="380"
   id="svg2"
   version="1.1"
   inkscape:version="0.48.4 r9939"
   sodipodi:docname="sky.svg">
  <defs
     id="defs4" />
  <sodipodi:namedview
     id="base"
     pagecolor="#ffffff"
     bordercolor="#666666"
     borderopacity="1.0"
     inkscape:pageopacity="0.0"
     inkscape:pageshadow="2"
     inkscape:zoom="1"
     inkscape:cx="-601.96646"
     inkscape:cy="1072.8571"
     inkscape:document-units="px"
     inkscape:current-layer="layer1"
     showgrid="false"
     inkscape:window-width="1920"
     inkscape:window-height="1112"
     inkscape:window-x="-4"
     inkscape:window-y="30"
     inkscape:window-maximized="1" />
  <metadata
     id="metadata7">
    <rdf:RDF>
      <cc:Work
         rdf:about="">
        <dc:format>image/svg+xml</dc:format>
        <dc:type
           rdf:resource="http://purl.org/dc/dcmitype/StillImage" />
        <dc:title></dc:title>
      </cc:Work>
    </rdf:RDF>
  </metadata>
  <g
     inkscape:label="Layer 1"
     inkscape:groupmode="layer"
     id="layer1"
     transform="translate(0,-672.36218)">
    <rect
       style="fill:#1da0e8;fill-opacity:1;stroke:none"
       id="rect2985"
       width="800"
       height="380"
       x="-1160.7142"
       y="-289.49493"
       inkscape:export-filename="/home/lykurg/qtbook/gv/jrgame/sky.png"
       inkscape:export-xdpi="90"
       inkscape:export-ydpi="90" />
    <path
       style="fill:#ffffff;fill-opacity:0.36979167;stroke:none"
       d="m -442.79616,-246.22059 c 11.01113,-2.78467 21.5146,-2.11129 28.47094,1.18063 0.84804,-0.27925 1.69361,-0.55724 2.57482,-0.7801 14.45661,-3.65601 28.26149,1.62718 30.83435,11.80032 2.57267,10.17313 -7.0611,21.38386 -21.51765,25.03986 -1.50244,0.37995 -2.98537,0.64688 -4.46189,0.83829 -3.69718,5.50155 -10.53867,10.17566 -19.0283,12.32264 -14.45656,3.656 -28.20665,-1.41016 -30.71168,-11.31558 l -0.022,-2.50867 c -7.14002,-1.67994 -12.27999,-5.3489 -13.59562,-10.55122 l 0.30109,-6.32951 c 2.64817,-8.34313 13.53585,-16.25221 27.15593,-19.69666 z"
       id="path3911-1"
       inkscape:connector-curvature="0" />
    <path
       style="fill:#ffffff;fill-opacity:0.95833331;stroke:none"
       d="m -603.38616,-265.65191 c -12.02096,2.80384 -20.84418,11.11337 -21.61661,19.60837 -1.60092,0.21145 -3.21872,0.45698 -4.85727,0.81828 -17.41547,3.84012 -29.7928,14.85054 -27.64124,24.60815 1.58952,7.20863 10.67781,11.71006 22.33141,12.02148 -0.28131,1.39837 -0.30904,2.80269 -0.008,4.1689 2.0971,9.51057 18.22886,14.04386 36.01486,10.12202 9.09619,-2.00572 17.03979,-5.92133 22.25221,-10.63333 4.36256,1.49665 9.84824,1.6878 15.46493,0.21866 11.24674,-2.94178 18.77777,-11.44087 17.0063,-19.08079 9.51338,-3.75349 16.74699,-9.33371 19.15575,-15.18543 l 0.64823,-5.91919 c -1.1534,-5.2308 -6.97386,-8.85909 -15.15728,-10.28024 0.31567,-1.2219 0.47707,-2.41469 0.49201,-3.55264 l -1.45361,-5.43402 c -4.95453,-7.4897 -20.84966,-5.67591 -35.51262,4.0238 -0.38323,0.2535 -0.7471,0.51862 -1.12093,0.77771 -4.76882,-6.07739 -15.06572,-8.83172 -25.9983,-6.28174 z m 8.64852,34.91668 c 0.0744,0.19769 0.16054,0.38972 0.2488,0.58093 -0.0953,7.7e-4 -0.19232,0.01 -0.28791,0.0103 l 0.0391,-0.59163 z"
       id="path3773-3"
       inkscape:connector-curvature="0" />
    <path
       inkscape:connector-curvature="0"
       style="fill:#ffffff;fill-opacity:1;stroke:none"
       d="m -1081.5932,-265.70113 c -12.3392,-0.32937 -22.978,5.47696 -25.875,13.5 -1.6023,-0.20055 -3.2296,-0.3724 -4.9062,-0.4375 -17.8204,-0.6919 -32.5811,6.82803 -32.9688,16.8125 -0.2864,7.37624 7.367,14.03098 18.5625,17.28125 -0.626,1.28167 -1.0082,2.63327 -1.0625,4.03125 -0.3778,9.7317 14.0817,18.19963 32.2813,18.90625 9.3077,0.36138 17.9836,-1.41663 24.2187,-4.65625 3.8419,2.5519 9.1006,4.125 14.9063,4.125 11.6251,0 21.0617,-6.31672 21.2812,-14.15625 10.1536,-1.22393 18.5639,-4.79204 22.375,-9.84375 l 2.125,-5.5625 c 0.2078,-5.35243 -4.505,-10.3355 -12.0625,-13.78125 0.6146,-1.10224 1.0726,-2.21537 1.375,-3.3125 l -0.031,-5.625 c -2.8979,-8.49969 -18.7347,-10.76724 -35.375,-5.09375 -0.4349,0.14828 -0.854,0.31268 -1.2812,0.46875 -3.0757,-7.08636 -12.3405,-12.3567 -23.5625,-12.65625 z m -0.4687,35.96875 c 0.022,0.21008 0.057,0.41767 0.094,0.625 -0.092,-0.0236 -0.1885,-0.0393 -0.2813,-0.0625 l 0.1875,-0.5625 z"
       id="path3773-3-0" />
    <path
       style="fill:#ffffff;fill-opacity:0.66145833;stroke:none"
       d="m -991.00963,-188.60126 c -10.60777,4.05899 -21.11757,4.62423 -28.41247,2.17235 -0.8094,0.37694 -1.6164,0.75235 -2.4654,1.07719 -13.9269,5.32907 -28.2569,1.70428 -32.0071,-8.09615 -3.75,-9.80044 4.5,-22.06532 18.4269,-27.39438 1.4474,-0.55383 2.8887,-0.99313 4.3325,-1.35667 3.0253,-5.89781 9.2703,-11.34329 17.4489,-14.47278 13.92693,-5.32906 28.17698,-1.91336 31.82837,7.62918 l 0.31655,2.48871 c 7.28794,0.82949 12.82335,3.86919 14.74105,8.88092 l 0.44459,6.32105 c -1.64967,8.59647 -11.53279,17.72988 -24.65389,22.75058 z"
       id="path3911"
       inkscape:connector-curvature="0" />
    <path
       style="fill:#ffffff;fill-opacity:1;stroke:none"
       d="m -411,-220.13782 c -11.35779,0 -21.37559,-3.22803 -27.3125,-8.125 -0.89062,0.0628 -1.77854,0.125 -2.6875,0.125 -14.9117,0 -27,-8.50659 -27,-19 0,-10.49341 12.0883,-19 27,-19 1.54973,0 3.05291,0.10481 4.53125,0.28125 4.93319,-4.42718 12.71185,-7.28125 21.46875,-7.28125 14.91169,0 27,8.28273 27,18.5 l -0.59375,2.4375 c 6.51021,3.37923 10.59375,8.1964 10.59375,13.5625 l -1.84375,6.0625 c -4.61289,7.43922 -17.10738,12.4375 -31.15625,12.4375 z"
       id="path3911-4"
       inkscape:connector-curvature="0" />
    <path
       style="fill:#ffffff;fill-opacity:0.609375;stroke:none"
       d="m -850,-276.63782 c -23.74824,0 -43,8.50659 -43,19 0,0.68794 0.0887,1.36223 0.25,2.03125 -9.57967,2.50521 -15.25,5.59658 -15.25,8.96875 0,8.28427 34.25022,15 76.5,15 42.24978,0 76.5,-6.71573 76.5,-15 0,-3.68657 -6.81055,-7.04453 -18.0625,-9.65625 0.0299,-0.28197 0.0625,-0.55735 0.0625,-0.84375 l -1.28125,-4.4375 c -3.21505,-5.42862 -11.92711,-9.0625 -21.71875,-9.0625 -6.33307,0 -12.05943,1.50682 -16.21875,3.9375 -7.43188,-6.04362 -21.84778,-9.9375 -37.78125,-9.9375 z"
       id="path3942"
       inkscape:connector-curvature="0" />
    <path
       style="fill:#ffffff;fill-opacity:1;stroke:none"
       d="m -767,-253.63782 c -7.73199,0 -14,5.59644 -14,12.5 0,0.28398 0.0104,0.56449 0.0312,0.84375 -1.54873,-0.85169 -3.24577,-1.34375 -5.03125,-1.34375 -7.1797,0 -13,7.61116 -13,17 0,9.38884 5.8203,17 13,17 1.33605,0 2.6306,-0.26047 3.84375,-0.75 2.55639,4.09456 6.59846,6.75 11.15625,6.75 3.1776,0 6.08787,-1.30269 8.4375,-3.46875 3.18771,3.32372 8.29147,5.46875 14.0625,5.46875 8.14823,0 14.98896,-4.30895 16.9375,-10.125 1.2676,-0.66642 2.39744,-1.46248 3.34375,-2.375 5.34026,-1.49216 9.21875,-6.08344 9.21875,-11.5 0,-0.85206 -0.0983,-1.66693 -0.28125,-2.46875 7.06303,-1.58503 12.28125,-7.04005 12.28125,-13.53125 0,-7.73199 -7.3873,-14 -16.5,-14 -4.71154,0 -8.93097,1.68785 -11.9375,4.375 -3.10324,-2.65756 -8.01808,-4.375 -13.5625,-4.375 -3.7974,0 -7.29518,0.7947 -10.125,2.15625 -2.24595,-1.3697 -4.94988,-2.15625 -7.875,-2.15625 z"
       id="path3969"
       inkscape:connector-curvature="0" />
  </g>
</svg>
